# xmcd CD database file
#
# Track frame offsets:
#	150
#	24360
#	39517
#	58287
#	74352
#	94500
#	110030
#	127555
#	140535
#	156300
#	171637
#	185617
#	195957
#	209955
#	231317
#	242215
#	261970
#	276037
#	291495
#	313147
#	334867
#
# Disc length: 4719 seconds
#
# Revision: 4
# Processed by: cddbd v1.5.2PL0 Copyright (c) Steve Scherf et al.
# Submitted via: CDex 2.05
#
DISCID=4e126d15
DTITLE=ZZ Top - Rancho Texicano: The Very Best of ZZ Top [CD1]
DYEAR=2004
DGENRE=Rock
TTITLE0=Brown Sugar
TTITLE1=Goin' Down To Mexico
TTITLE2=Just Got Back From Baby's
TTITLE3=Francine
TTITLE4=Just Got Paid
TTITLE5=Bar-B-Q
TTITLE6=La Grange
TTITLE7=Waitin' For The Bus
TTITLE8=Jesus Just Left Chicago
TTITLE9=Beer Drinkers and Hell Raisers
TTITLE10=Mexican Blackbird
TTITLE11=Tush
TTITLE12=Thunderbird
TTITLE13=Blue Jean Blues
TTITLE14=Heard It On The X
TTITLE15=It's Only Love
TTITLE16=Arrested For Driving While Blind
TTITLE17=I Thank You
TTITLE18=Cheap Sunglasses
TTITLE19=I'm Bad, I'm Nationwide
TTITLE20=A Fool For Your Stockings
EXTD=UPC: 081227890827 - Catalogue #: 8122-78908-2 - Label: Warner Bros. - ASIN: B0001ZXM54 - Release Date: 2004 06 08 - Discogs: r1925621 - MUSICBRAINZ_ALBUMID: 9474a4cd-ff93-456e-8ba3-7dba106d8d38;\n YEAR: 2004
EXTT0=
EXTT1=
EXTT2=
EXTT3=Printed on cover as "Francene"\n
EXTT4=
EXTT5=
EXTT6=
EXTT7=
EXTT8=
EXTT9=
EXTT10=
EXTT11=
EXTT12=
EXTT13=
EXTT14=
EXTT15=
EXTT16=
EXTT17=
EXTT18=
EXTT19=
EXTT20=
PLAYORDER=
